<svg width="128" height="92" viewBox="0 0 128 92" fill="none" xmlns="http://www.w3.org/2000/svg">
<path d="M46.3697 75.8423C62.9316 75.8423 76.3577 62.4162 76.3577 45.8543C76.3577 29.2924 62.9316 15.8663 46.3697 15.8663C29.8078 15.8663 16.3817 29.2924 16.3817 45.8543C16.3817 62.4162 29.8078 75.8423 46.3697 75.8423Z" fill="#70C0F3"/>
<path d="M46.3697 75.8423C62.9316 75.8423 76.3577 62.4162 76.3577 45.8543C76.3577 29.2924 62.9316 15.8663 46.3697 15.8663C29.8078 15.8663 16.3817 29.2924 16.3817 45.8543C16.3817 62.4162 29.8078 75.8423 46.3697 75.8423Z" fill="#70C0F3"/>
<path d="M46.049 91.6086L42.377 85.5177L38.6759 79.4269L45.8159 79.2812L52.9268 79.1646L49.4879 85.4012L46.049 91.6086Z" fill="#70C0F3"/>
<path d="M45.8159 0.391449L49.3713 6.54059L52.9268 12.7189H45.8159H38.6759L42.2313 6.54059L45.8159 0.391449Z" fill="#70C0F3"/>
<path d="M78.2229 78.0863L71.316 76.3669L64.4092 74.6766L69.3343 69.5475L74.2886 64.4183L76.2703 71.2378L78.2229 78.0863Z" fill="#70C0F3"/>
<path d="M13.5547 13.7389L20.4324 15.5749L27.3101 17.44L22.2684 22.4526L17.2267 27.4943L15.3907 20.6166L13.5547 13.7389Z" fill="#70C0F3"/>
<path d="M91.4246 45.7669L85.3337 49.4389L79.2428 53.1109L79.0971 46L78.9514 38.8892L85.188 42.328L91.4246 45.7669Z" fill="#70C0F3"/>
<path d="M0.178223 46L6.35651 42.4446L12.5057 38.8892V46V53.1109L6.35651 49.5555L0.178223 46Z" fill="#70C0F3"/>
<path d="M77.9022 13.564L76.1828 20.5L74.4634 27.4069L69.3342 22.4526L64.2051 17.5275L71.0536 15.5457L77.9022 13.564Z" fill="#70C0F3"/>
<path d="M13.5547 78.2612L15.3907 71.3835L17.2267 64.5057L22.2684 69.5475L27.3101 74.56L20.4324 76.4252L13.5547 78.2612Z" fill="#70C0F3"/>
<path d="M127.649 77.7949C127.649 84.7892 121.966 90.4429 115.001 90.4429C112.845 90.4429 65.5458 91.6086 61.4075 91.6086C54.4132 91.6086 48.7595 85.9257 48.7595 78.9606C48.7595 72.5492 53.5098 67.2451 59.6881 66.4291C59.6589 65.992 59.6589 65.5549 59.6589 65.1177C59.6589 51.1292 70.9955 39.7926 84.9841 39.7926C96.7287 39.7926 106.579 47.7777 109.464 58.5897C112.437 60.0469 114.914 62.3783 116.575 65.2343C122.812 65.992 127.649 71.3251 127.649 77.7949Z" fill="#46ADEF"/>
</svg>
