<svg width="74" height="75" viewBox="0 0 74 75" fill="none" xmlns="http://www.w3.org/2000/svg">
<g filter="url(#filter0_d)">
<path fill-rule="evenodd" clip-rule="evenodd" d="M36.6512 62.4481C52.4748 62.4481 65.3023 49.364 65.3023 33.224C65.3023 17.0841 52.4748 4 36.6512 4C20.8276 4 8 17.0841 8 33.224C8 49.364 20.8276 62.4481 36.6512 62.4481Z" fill="#1181C8"/>
<path d="M65.0523 33.224C65.0523 49.2307 52.332 62.1981 36.6512 62.1981C20.9703 62.1981 8.25 49.2307 8.25 33.224C8.25 17.2174 20.9703 4.25 36.6512 4.25C52.332 4.25 65.0523 17.2174 65.0523 33.224Z" stroke="url(#paint0_linear)" stroke-width="0.5"/>
<path d="M65.0523 33.224C65.0523 49.2307 52.332 62.1981 36.6512 62.1981C20.9703 62.1981 8.25 49.2307 8.25 33.224C8.25 17.2174 20.9703 4.25 36.6512 4.25C52.332 4.25 65.0523 17.2174 65.0523 33.224Z" stroke="url(#paint1_linear)" stroke-width="0.5"/>
</g>
<path d="M36.6511 36.5639C38.4595 36.5639 39.9255 35.0686 39.9255 33.224C39.9255 31.3795 38.4595 29.8842 36.6511 29.8842C34.8427 29.8842 33.3767 31.3795 33.3767 33.224C33.3767 35.0686 34.8427 36.5639 36.6511 36.5639Z" fill="white" fill-opacity="0.9"/>
<path d="M44.8372 24.8743H41.5935L40.3246 23.4653C39.946 23.0374 39.3935 22.7869 38.8204 22.7869H34.4818C33.9088 22.7869 33.3563 23.0374 32.9674 23.4653L31.7088 24.8743H28.4651C27.3395 24.8743 26.4186 25.8136 26.4186 26.9617V39.4863C26.4186 40.6344 27.3395 41.5737 28.4651 41.5737H44.8372C45.9628 41.5737 46.8837 40.6344 46.8837 39.4863V26.9617C46.8837 25.8136 45.9628 24.8743 44.8372 24.8743ZM36.6511 38.4426C33.827 38.4426 31.5349 36.1047 31.5349 33.224C31.5349 30.3434 33.827 28.0054 36.6511 28.0054C39.4753 28.0054 41.7674 30.3434 41.7674 33.224C41.7674 36.1047 39.4753 38.4426 36.6511 38.4426Z" fill="white" fill-opacity="0.9"/>
<defs>
<filter id="filter0_d" x="0" y="0" width="73.3023" height="74.4481" filterUnits="userSpaceOnUse" color-interpolation-filters="sRGB">
<feFlood flood-opacity="0" result="BackgroundImageFix"/>
<feColorMatrix in="SourceAlpha" type="matrix" values="0 0 0 0 0 0 0 0 0 0 0 0 0 0 0 0 0 0 127 0"/>
<feOffset dy="4"/>
<feGaussianBlur stdDeviation="4"/>
<feColorMatrix type="matrix" values="0 0 0 0 0 0 0 0 0 0 0 0 0 0 0 0 0 0 0.12 0"/>
<feBlend mode="normal" in2="BackgroundImageFix" result="effect1_dropShadow"/>
<feBlend mode="normal" in="SourceGraphic" in2="effect1_dropShadow" result="shape"/>
</filter>
<linearGradient id="paint0_linear" x1="8.28037" y1="4" x2="8.28037" y2="61.8761" gradientUnits="userSpaceOnUse">
<stop stop-opacity="0"/>
<stop offset="0.8" stop-opacity="0.02"/>
<stop offset="1" stop-opacity="0.04"/>
</linearGradient>
<linearGradient id="paint1_linear" x1="8" y1="4" x2="8" y2="62.4481" gradientUnits="userSpaceOnUse">
<stop stop-color="white" stop-opacity="0.12"/>
<stop offset="0.2" stop-color="white" stop-opacity="0.06"/>
<stop offset="1" stop-color="white" stop-opacity="0"/>
</linearGradient>
</defs>
</svg>
